<?xml version="1.0" encoding="UTF-8"?>
<svg id="Layer_1" data-name="Layer 1" xmlns="http://www.w3.org/2000/svg" viewBox="0 0 1025 1024.95">
  <rect x=".5" y=".5" width="1024" height="1023.95" fill="#991a36" stroke="#231f20" stroke-miterlimit="10"/>
  <g id="Layer_3" data-name="Layer 3">
    <path d="M899.26,486.48l-509.14-159.11s-21.41-8.38-57.41-7.45c-36,.93-44.37,0-89.68,22.96,69.15-5.05,84.73-5.78,94.31-5.38,3.23.14,6.23.42,6.23.42s19.45,1.57,39.1,6.62c16.68,4.28,227.6,61.99,516.59,141.94Z" fill="#fff"/>
    <path d="M931.07,523.9l-515.43-132.37c-3.4-.87-6.98.47-8.96,3.36l-82.6,120.39c-3.82,5.57.2,13.13,6.95,13.08l600.04-4.46Z" fill="#fff"/>
    <path d="M153.99,458.54c-3.14-.41-5.04-3.68-3.85-6.61,4.58-11.28,16.25-36.79,35.02-56.26,24.82-25.76,42.82-38.79,52.75-40.34s89.68,0,89.68,0c0,0,18.96.6,17.17,21.66-.06.65-.23,1.29-.49,1.9-8.95,20.29-39.31,73.98-66.5,87.87-1.71.88-3.58,1.37-5.5,1.53-25.13,2.09-96.91-6.94-118.27-9.75Z" fill="#fff"/>
    <path d="M131.89,484.52l-7.2,23.42c-.84,2.74.93,5.59,3.76,6.04l111.2,17.84c2.01.32,4.01-.69,4.94-2.5l15.13-29.43c1.52-2.96-.42-6.52-3.73-6.85l-119.13-11.82c-2.23-.22-4.31,1.16-4.97,3.31Z" fill="#fff"/>
    <path d="M93.93,600.27v23.21c0,1.65.28,3.28.83,4.84,1.8,5.09,6.55,17.11,14.38,27.31,8.58,11.17,29.99,16.26,36.73,17.61,1.22.25,2.44.43,3.68.55,10.87,1.04,73.25,6.63,93.48-.16,19.58-6.57,131.34-47.94,157.35-57.58,3.6-1.33,7.33-2.29,11.13-2.84l453.54-66.38-509.53,27.81c-11.06,1.79-28.04,5.25-47.79,12.41-36.1,13.09-40.03,23.51-69.2,34.91-16.39,6.4-58.13,22.72-100.23,6.67-19.9-7.59-33.67-20.04-42.02-29.28-.83-.92-2.36-.32-2.36.92Z" fill="#fff"/>
    <path d="M899.26,557.41l-547.19,120.18c-3.48.76-7.03,1.15-10.6,1.15h-56.08l99.09-39.16c1.99-.79,4.07-1.35,6.19-1.69l508.59-80.49Z" fill="#fff"/>
  </g>
</svg>